<svg width="193" height="186" viewBox="0 0 193 186" fill="none" xmlns="http://www.w3.org/2000/svg">
<g clip-path="url(#clip0_2318_1743)">
<path d="M192.17 32.47L192.15 156.63L97.6001 185.53L97.6201 61.38L192.17 32.47Z" fill="#CCCBC0"/>
<path d="M112.13 126.72C106.84 128.35 102.79 123.72 102.77 116.26C102.75 108.8 106.77 101.72 112.09 100.09C117.58 98.3902 121.52 102.75 121.53 110.46C121.54 118.17 117.62 125.02 112.13 126.72ZM112.13 98.8102C106.35 100.6 101.82 108.39 101.83 116.56C101.84 124.73 106.4 129.78 112.18 128C116.81 126.57 120.31 121.89 121.59 115.68V123.93C121.59 130.83 118.14 136.48 112.97 138.08C108.47 139.47 104.92 137.26 104.91 132.39L104 132.67C104 138.24 108 140.9 113 139.35C118.74 137.58 122.62 131.28 122.6 123.62V96.1702L121.6 96.4802V105.3C120.31 99.8902 116.79 97.3802 112.16 98.8102" fill="#5B5B5D"/>
<path d="M138.45 118.59C133.16 120.22 129.1 115.59 129.09 108.13C129.08 100.67 133.09 93.5901 138.4 91.9601C143.89 90.2601 147.83 94.6201 147.85 102.33C147.87 110.04 143.94 116.89 138.45 118.59ZM138.45 90.6801C132.67 92.4701 128.13 100.25 128.15 108.43C128.17 116.61 132.72 121.65 138.5 119.87C143.13 118.44 146.63 113.75 147.9 107.55V116.37L148.9 116.07L148.85 88.0701L147.85 88.3801V97.2001C146.55 91.7901 143.04 89.2801 138.41 90.7101" fill="#5B5B5D"/>
<path d="M179.17 78.0801C175.86 79.0801 172.69 82.6401 171.67 88.1801C170.67 83.4801 167.98 81.5401 163.97 82.7801C160.97 83.7001 158.11 86.6201 156.84 91.7201V85.5601L155.84 85.8701V113.87L156.84 113.56V97.2001C156.84 88.9001 160.74 85.0201 163.96 84.0201C168.43 82.6401 171.08 85.8901 171.09 92.7901V109.16L172.09 108.85V92.4901C172.09 84.3601 175.91 80.3301 179.17 79.3301C183.68 77.9301 186.33 81.2301 186.34 88.0801V104.45L187.34 104.14V87.7801C187.34 80.0601 184.27 76.4801 179.18 78.0501" fill="#5B5B5D"/>
<path d="M102.23 160.93C102.88 154.34 106.5 148.46 111.09 147.05C115.68 145.64 119.23 149.34 119.45 155.61L102.23 160.93ZM111.08 145.77C105.55 147.48 101.14 155.23 101.15 163.29C101.15 171.76 105.44 176.72 111.15 174.96C115.7 173.55 119.54 168.83 120.35 163.12L119.35 163.42C118.66 168.34 115.24 172.42 111.14 173.68C105.98 175.27 102.14 170.68 102.14 162.99V162.24L120.44 156.58V156.23C120.44 148.69 116.44 144.12 111.07 145.77" fill="#5B5B5D"/>
<path d="M132.24 139.23C130.366 139.835 128.732 141.017 127.57 142.606C126.408 144.195 125.778 146.111 125.77 148.08C125.77 159.28 138.54 148.2 138.55 158.47C138.571 160.36 137.998 162.208 136.91 163.754C135.822 165.299 134.276 166.463 132.49 167.08C129.1 168.08 126.62 166.22 126.24 162.28L125.24 162.59C125.7 167.33 128.6 169.59 132.52 168.36C136.65 167.08 139.58 162.81 139.58 158.05C139.58 146.5 126.81 157.58 126.79 147.78C126.821 146.146 127.368 144.563 128.352 143.257C129.336 141.952 130.707 140.99 132.27 140.51C135.16 139.62 137.56 141.26 138.02 144.51L139.02 144.19C138.55 140.19 135.74 138.19 132.23 139.25" fill="#5B5B5D"/>
<path d="M97.6 185.53L0 153.06L0.02 28.9099L97.62 61.3799L97.6 185.53Z" fill="#87877F"/>
<path d="M31.7799 44.52C26.1599 42.65 21.7799 43.73 18.7799 47.21V41.21L4.35986 36.46V88.6L18.7899 93.4V67.7C18.7899 58.03 24.4199 55.55 31.3799 57.87C33.2023 58.5225 34.9544 59.3567 36.6099 60.36V46.76C35.0637 45.8895 33.4522 45.1405 31.7899 44.52" fill="#5B5B5D"/>
<path d="M64.4199 95.2999C57.4199 92.9899 51.8399 85.4999 51.8399 78.2999C51.8399 71.0999 57.4599 67.2999 64.4299 69.6499C71.3999 71.9999 76.9999 79.4299 76.9999 86.6499C76.9999 93.8699 71.4699 97.6499 64.3999 95.2999M61.0399 54.2999C48.0399 49.9799 37.6899 58.6499 37.6899 73.6099C37.6899 88.5699 48.0299 104.24 61.0299 108.61C68.0299 110.96 73.5199 109.67 77.0299 105.42V112.86L91.4499 117.66V65.4399L76.9999 60.6399V68.0699C73.6858 61.5451 67.9391 56.5849 60.9999 54.2599" fill="#5B5B5D"/>
<path d="M18.7698 102.99L4.34984 98.1899L4.33984 150.31L18.7698 155.11V102.99Z" fill="#5B5B5D"/>
<path d="M71.05 119.32C65.31 117.41 60.6 118.71 57.44 122.64V115.86L43 111.06V163.18L57.43 168V140.4C57.43 133.6 61.33 130.4 67.36 132.45C73.39 134.5 77.3 140.19 77.3 147V174.6L91.73 179.4V149.88C91.73 135.11 83.96 123.61 71.06 119.32" fill="#5B5B5D"/>
<path d="M97.62 61.38L0.0200195 28.91L94.57 0L192.17 32.47L97.62 61.38Z" fill="#ACACA2"/>
</g>
<defs>
<clipPath id="clip0_2318_1743">
<rect width="192.17" height="185.53" fill="white"/>
</clipPath>
</defs>
</svg>
